<?xml version="1.0"?>
<svg xmlns="http://www.w3.org/2000/svg" xmlns:xlink="http://www.w3.org/1999/xlink" version="1.1" id="Layer_1" x="0px" y="0px" viewBox="0 0 512 512" style="enable-background:new 0 0 512 512;" xml:space="preserve" width="512px" height="512px" class=""><g><g>
	<rect x="247.6" y="56" style="fill:#1721CC" width="16" height="200" data-original="#2B2B2B" class="" data-old_color="#2B2B2B"/>
	
		<rect x="163.861" y="207.174" transform="matrix(0.4961 0.8682 -0.8682 0.4961 350.5165 3.9433)" style="fill:#1721CC" width="15.999" height="193.589" data-original="#2B2B2B" class="" data-old_color="#2B2B2B"/>
	
		<rect x="242.735" y="295.835" transform="matrix(0.8682 0.4962 -0.4962 0.8682 195.5123 -128.4347)" style="fill:#1721CC" width="193.599" height="16" data-original="#2B2B2B" class="" data-old_color="#2B2B2B"/>
</g><circle style="fill:#6200EA" cx="255.6" cy="256" r="168" data-original="#54E3E3" class="" data-old_color="#54E3E3"/><g>
	<rect x="247.6" y="256" style="fill:#1721CC" width="16" height="224" data-original="#2B2B2B" class="" data-old_color="#2B2B2B"/>
	
		<rect x="343.452" y="88.701" transform="matrix(0.5039 0.8638 -0.8638 0.5039 347.0335 -204.3989)" style="fill:#1721CC" width="16.001" height="222.407" data-original="#2B2B2B" class="" data-old_color="#2B2B2B"/>
	
		<rect x="48.23" y="191.988" transform="matrix(0.8638 0.5039 -0.5039 0.8638 122.49 -53.0921)" style="fill:#1721CC" width="222.407" height="16.001" data-original="#2B2B2B" class="" data-old_color="#2B2B2B"/>
	<path style="fill:#1721CC" d="M409.2,104C374,68.8,327.6,46.4,278.8,40.8l1.6-16c52.8,5.6,102.4,29.6,140,68L409.2,104z" data-original="#2B2B2B" class="" data-old_color="#2B2B2B"/>
	<path style="fill:#1721CC" d="M102,104L90.8,92.8c37.6-37.6,87.2-62.4,140-68l1.6,16C183.6,46.4,137.2,68.8,102,104z" data-original="#2B2B2B" class="" data-old_color="#2B2B2B"/>
	<path style="fill:#1721CC" d="M198,480.8c-51.2-12.8-97.6-44-128.8-87.2L82,384c29.6,40,72,68.8,120,80.8L198,480.8z" data-original="#2B2B2B" class="" data-old_color="#2B2B2B"/>
	<path style="fill:#1721CC" d="M43.6,350.4c-13.6-29.6-20-61.6-20-94.4c0-21.6,3.2-43.2,8.8-63.2l15.2,4.8c-5.6,19.2-8,39.2-8,59.2   c0,30.4,6.4,60.8,19.2,88L43.6,350.4z" data-original="#2B2B2B" class="" data-old_color="#2B2B2B"/>
	<path style="fill:#1721CC" d="M313.2,480.8l-4-15.2c48-12,90.4-40.8,120-80.8l12.8,9.6C410.8,436.8,364.4,468,313.2,480.8z" data-original="#2B2B2B" class="" data-old_color="#2B2B2B"/>
	<path style="fill:#1721CC" d="M467.6,350.4l-14.4-6.4c12.8-28,19.2-57.6,19.2-88c0-20-2.4-40-8-59.2l15.2-4.8   c5.6,20.8,8.8,41.6,8.8,63.2C487.6,288.8,480.4,320.8,467.6,350.4z" data-original="#2B2B2B" class="" data-old_color="#2B2B2B"/>
	<path style="fill:#1721CC" d="M255.6,64c-17.6,0-32-14.4-32-32s14.4-32,32-32s32,14.4,32,32S273.2,64,255.6,64z M255.6,16   c-8.8,0-16,7.2-16,16s7.2,16,16,16c8.8,0,16-7.2,16-16S264.4,16,255.6,16z" data-original="#2B2B2B" class="" data-old_color="#2B2B2B"/>
</g><g>
	<circle style="fill:#1721CC" cx="63.6" cy="144" r="32" data-original="#FF661A" class="" data-old_color="#FF661A"/>
	<circle style="fill:#1721CC" cx="447.6" cy="144" r="32" data-original="#FF661A" class="" data-old_color="#FF661A"/>
</g><g>
	<path style="fill:#1721CC" d="M63.6,400c-17.6,0-32-14.4-32-32s14.4-32,32-32s32,14.4,32,32S81.2,400,63.6,400z M63.6,352   c-8.8,0-16,7.2-16,16s7.2,16,16,16s16-7.2,16-16S72.4,352,63.6,352z" data-original="#2B2B2B" class="" data-old_color="#2B2B2B"/>
	<path style="fill:#1721CC" d="M447.6,400c-17.6,0-32-14.4-32-32s14.4-32,32-32s32,14.4,32,32S465.2,400,447.6,400z M447.6,352   c-8.8,0-16,7.2-16,16s7.2,16,16,16s16-7.2,16-16S456.4,352,447.6,352z" data-original="#2B2B2B" class="" data-old_color="#2B2B2B"/>
</g><path style="fill:#1721CC" d="M223.6,480c0-17.6,14.4-32,32-32s32,14.4,32,32s-14.4,32-32,32S223.6,497.6,223.6,480z" data-original="#FF661A" class="" data-old_color="#FF661A"/><circle style="fill:#FFFFFF;" cx="255.6" cy="256" r="120" data-original="#FFFFFF" class=""/><path style="fill:#1721CC" d="M255.6,376c38.3,0,72.4-17.9,94.3-45.8c-0.7-2.5-1.7-4.9-3.1-7c-3.2-5.6-8-9.6-12.8-12L287.6,288  c0,17.6-14.4,32-32,32s-32-14.4-32-32l-46.4,23.2c-4.8,2.4-9.6,6.4-12.8,12c-1.3,2.3-2.4,4.6-3.1,7C183.2,358.1,217.3,376,255.6,376  z" data-original="#FF661A" class="" data-old_color="#FF661A"/><path style="fill:#D3DDE4" d="M290.4,289.4c-2.6-1.4-3.9-3.3-6-5.4l0,0c-1.6-1.6-2.4-3.2-3.2-4.8c-0.8-2.4-1.6-4-1.6-6.4v-10.4  c10.4-9.6,16-25.6,16-38.4v-16c0-10.4-4-20.8-12-28c-8-8-18.4-12-28-12c-9.6,0-20.8,4-28,12c-8,8-12,18.4-12,28v16  c0,13.6,5.6,28.8,16,38.4v10.4c0,2.4,0,4-1.6,6.4c-0.8,2.4-2.4,4-3.2,4.8l0,0c-2.1,2.1-4.5,3.9-7.2,5.3l-11.7,6.5  c4,23.4,23.4,40.2,47.6,40.2s44.4-17.5,47.7-40.2L290.4,289.4z" data-original="#E3E3E3" class="active-path" data-old_color="#E3E3E3"/><path style="fill:#1721CC" d="M255.6,384c-70.4,0-128-57.6-128-128s57.6-128,128-128s128,57.6,128,128S326,384,255.6,384z   M255.6,144c-61.6,0-112,50.4-112,112s50.4,112,112,112s112-50.4,112-112S317.2,144,255.6,144z" data-original="#2B2B2B" class="" data-old_color="#2B2B2B"/></g> </svg>
